<?xml version="1.0" encoding="utf-8"?>
<!-- Generator: Adobe Illustrator 21.0.0, SVG Export Plug-In . SVG Version: 6.00 Build 0)  -->
<svg version="1.1" id="图层_1" xmlns="http://www.w3.org/2000/svg" xmlns:xlink="http://www.w3.org/1999/xlink" x="0px" y="0px"
	 viewBox="0 0 1024 1024" style="enable-background:new 0 0 1024 1024;" xml:space="preserve">
<style type="text/css">
	.st0{fill:#0E1452;}
	.st1{fill:#FFFFFF;stroke:#FFFFFF;stroke-width:10;stroke-miterlimit:10;}
	.st2{display:none;}
	.st3{display:inline;fill:#FFFFFF;}
	.st4{display:inline;}
	.st5{fill:url(#SVGID_1_);}
	.st6{fill:url(#SVGID_2_);}
	.st7{display:inline;fill:url(#SVGID_3_);}
</style>
<path class="st0" d="M950.3,621.3C890,863.5,644.8,1010.8,402.6,950.4C160.5,890,13.2,644.8,73.6,402.7
	C133.9,160.5,379.2,13.2,621.2,73.5C863.4,133.9,1010.7,379.2,950.3,621.3z"/>
<g>
	<g>
		<path class="st1" d="M522.3,710.4L370,669.6c-7.6-2-13.1-8.6-13.7-16.5l-26.7-335.9L180,466.7c-7.2,7.2-19,7.2-26.2,0
			c-7.2-7.3-7.2-19,0-26.2L332,262.6c5.1-5.1,12.7-6.8,19.5-4.3c6.8,2.5,11.5,8.7,12.1,15.9L392.4,637L532,674.6
			c4.4,1.2,26.5,6.2,33.5-9.1c4.6-10.3,1.8-20.6-7.3-26.3c-12-7.6-26.7-11-42.2-14.6c-6.8-1.6-13.9-3.2-20.9-5.3
			c-16.4-4.8-60-17.4-64.3-54.6c-2.3-19.6,4.8-38.2,19.4-50.9c15.2-13.3,35.8-17.8,56.5-12.5c28.4,7.3,67.6,18.1,109.2,29.5
			c56.8,15.6,115.5,31.8,153.9,41c0.2,0,0.3,0.1,0.5,0.1c9.7,2.6,15.6,12.5,13.2,22.3c-2.4,10-12.4,16.1-22.4,13.7
			c-39-9.4-98-25.6-155.1-41.3c-41.4-11.4-80.5-22.1-108.6-29.3c-8.6-2.2-17-0.6-22.9,4.6c-5.3,4.6-7.8,11.3-6.9,18.7
			c0.7,5.8,7.8,14.5,37.7,23.2c6.1,1.8,12.3,3.2,19,4.7c17.9,4.1,36.3,8.4,53.6,19.3c24.8,15.7,33.6,45.7,21.3,72.9
			C586.9,708,556.8,719.6,522.3,710.4z"/>
	</g>
	<g>
		<path class="st1" d="M778.8,776.3c-7.1-1.9-12.7-8-13.6-15.8l-28.7-253L594.3,647.4c-7.3,7.2-19,7.1-26.2-0.2s-7.1-19,0.2-26.2
			l169.3-166.6c5.1-5,12.5-6.6,19.2-4.3c6.7,2.4,11.4,8.3,12.2,15.4l33,290.8c1.2,10.2-6.2,19.4-16.3,20.5
			C783.3,777,781,776.8,778.8,776.3z"/>
	</g>
</g>
<g id="图层_3">
</g>
<g id="图层_2" class="st2">
	<circle class="st3" cx="510.2" cy="510.2" r="353.1"/>
	<g class="st4">
		
			<radialGradient id="SVGID_1_" cx="697.3356" cy="-307.663" r="34.4321" gradientTransform="matrix(1.7655 0 0 1.7655 -681.3024 950.0373)" gradientUnits="userSpaceOnUse">
			<stop  offset="0" style="stop-color:#F9AA4B"/>
			<stop  offset="1" style="stop-color:#F7931A"/>
		</radialGradient>
		<path class="st5" d="M509.6,368.3l-24.7,99c28,7,114.3,35.4,128.3-20.6C627.8,388.3,537.6,375.3,509.6,368.3z"/>
	</g>
	<g class="st4">
		
			<radialGradient id="SVGID_2_" cx="681.7938" cy="-219.537" r="39.8583" gradientTransform="matrix(1.7655 0 0 1.7655 -681.3024 950.0373)" gradientUnits="userSpaceOnUse">
			<stop  offset="0" style="stop-color:#F9AA4B"/>
			<stop  offset="1" style="stop-color:#F7931A"/>
		</radialGradient>
		<path class="st6" d="M472.5,517.3l-27.2,109.2c33.6,8.3,137.3,41.6,152.6-19.9C613.9,542.3,506.1,525.7,472.5,517.3z"/>
	</g>
	
		<radialGradient id="SVGID_3_" cx="675.8455" cy="-248.1377" r="255.9972" gradientTransform="matrix(1.7655 0 0 1.7655 -681.3024 950.0373)" gradientUnits="userSpaceOnUse">
		<stop  offset="0" style="stop-color:#F9AA4B"/>
		<stop  offset="1" style="stop-color:#F7931A"/>
	</radialGradient>
	<path class="st7" d="M621.2,73.5c-242.1-60.4-487.3,87-547.7,329.2c-60.4,242.1,87,487.4,329,547.7
		c242.2,60.4,487.4-87,547.8-329.1C1010.7,379.2,863.4,133.9,621.2,73.5z M711.2,447.6c-6.5,44-30.9,65.3-63.3,72.8
		c44.5,23.2,67.1,58.7,45.6,120.3c-26.8,76.5-90.4,82.9-174.9,66.9L498,789.9l-49.6-12.4l20.3-81.1c-12.9-3.2-26-6.6-39.5-10.3
		l-20.3,81.5l-49.5-12.4l20.5-82.4c-11.6-3-23.3-6.1-35.4-9.1L280,647.6l24.6-56.8c0,0,36.5,9.7,36,9c14,3.5,20.3-5.7,22.7-11.8
		l32.4-130l0.1-0.4l23.1-92.8c0.6-10.5-3-23.8-23.1-28.8c0.8-0.5-36-9-36-9l13.2-53l68.4,17.1l-0.1,0.3c10.3,2.6,20.9,5,31.7,7.4
		l20.3-81.4l49.6,12.4L523,309.7c13.3,3,26.7,6.1,39.7,9.4l19.8-79.3l49.6,12.4l-20.3,81.5C674.4,355.1,720.2,387.5,711.2,447.6z"/>
</g>
</svg>
